<svg width="40" height="40" viewBox="0 0 40 40" fill="none" xmlns="http://www.w3.org/2000/svg">
<rect x="1.25" y="1.25" width="37.5" height="37.5" rx="18.75" stroke="white" stroke-width="2.5"/>
<path d="M18.065 20.493L11.885 21.811C11.6451 21.8631 11.3944 21.8186 11.1871 21.6873C10.9797 21.5559 10.8324 21.3482 10.777 21.109L10.24 18.959C10.1769 18.7 10.2127 18.4267 10.3406 18.1927C10.4684 17.9587 10.6789 17.7809 10.931 17.694L24.435 13.254" stroke="white" stroke-width="2" stroke-linecap="round" stroke-linejoin="round"/>
<path d="M21.5601 19.747L25.8921 18.823" stroke="white" stroke-width="2" stroke-linecap="round" stroke-linejoin="round"/>
<path d="M24 29L20.895 22.79" stroke="white" stroke-width="2" stroke-linecap="round" stroke-linejoin="round"/>
<path d="M24.4849 13.94C24.3564 13.4255 24.4375 12.881 24.7103 12.4262C24.9832 11.9715 25.4255 11.6437 25.9399 11.515L27.0299 11.243C27.2871 11.1789 27.5591 11.2194 27.7864 11.3557C28.0136 11.492 28.1775 11.713 28.2419 11.97L29.7569 18.03C29.8214 18.2873 29.781 18.5596 29.6447 18.7871C29.5083 19.0145 29.2872 19.1785 29.0299 19.243L27.9399 19.515C27.4254 19.6435 26.8809 19.5625 26.4262 19.2896C25.9714 19.0168 25.6436 18.5745 25.5149 18.06L24.4849 13.94Z" stroke="white" stroke-width="2" stroke-linecap="round" stroke-linejoin="round"/>
<path d="M14.158 16.633L15.272 21.089" stroke="white" stroke-width="2" stroke-linecap="round" stroke-linejoin="round"/>
<path d="M16 29L19.105 22.79" stroke="white" stroke-width="2" stroke-linecap="round" stroke-linejoin="round"/>
<path d="M20 23C21.1046 23 22 22.1046 22 21C22 19.8954 21.1046 19 20 19C18.8954 19 18 19.8954 18 21C18 22.1046 18.8954 23 20 23Z" stroke="white" stroke-width="2" stroke-linecap="round" stroke-linejoin="round"/>
</svg>
