<svg width="36" height="36" viewBox="0 0 36 36" fill="none" xmlns="http://www.w3.org/2000/svg">
<path d="M35.4643 7.40549C34.2118 7.96049 32.8663 8.33549 31.4518 8.50499C32.9113 7.63168 34.0032 6.25719 34.5238 4.63799C33.1525 5.45248 31.6518 6.02579 30.0868 6.33299C29.0343 5.20929 27.6404 4.46448 26.1213 4.2142C24.6022 3.96393 23.0429 4.22218 21.6856 4.94887C20.3283 5.67556 19.2489 6.83004 18.615 8.23305C17.9811 9.63606 17.8281 11.2091 18.1798 12.708C15.4013 12.5685 12.6832 11.8463 10.2019 10.5884C7.7206 9.33038 5.53154 7.56474 3.77677 5.40599C3.17677 6.44099 2.83177 7.64099 2.83177 8.91899C2.8311 10.0695 3.11442 11.2024 3.65659 12.2171C4.19876 13.2318 4.98302 14.0971 5.93977 14.736C4.83019 14.7007 3.74508 14.4009 2.77477 13.8615V13.9515C2.77466 15.5651 3.33282 17.1291 4.35455 18.378C5.37627 19.6269 6.79863 20.4839 8.38027 20.8035C7.35095 21.0821 6.27178 21.1231 5.22427 20.9235C5.67052 22.3119 6.53977 23.526 7.71032 24.3959C8.88088 25.2657 10.2941 25.7478 11.7523 25.7745C9.27702 27.7176 6.2201 28.7716 3.07327 28.767C2.51584 28.7671 1.95889 28.7346 1.40527 28.6695C4.59949 30.7233 8.31778 31.8132 12.1153 31.809C24.9703 31.809 31.9978 21.162 31.9978 11.928C31.9978 11.628 31.9903 11.325 31.9768 11.025C33.3437 10.0365 34.5236 8.81234 35.4613 7.40999L35.4643 7.40549V7.40549Z" fill="black"/>
</svg>
